<mxfile host="app.diagrams.net" modified="2022-11-10T19:11:13.022Z" agent="5.0 (Macintosh; Intel Mac OS X 10_15_7) AppleWebKit/537.36 (KHTML, like Gecko) Chrome/107.0.0.0 Safari/537.36" etag="Qv9vOJpz31Ktj1uetLC3" version="20.5.1" type="github">
  <diagram id="1YLvR0aLCjjz94nmcO2F" name="Page-1">
    <mxGraphModel dx="938" dy="528" grid="1" gridSize="10" guides="1" tooltips="1" connect="1" arrows="1" fold="1" page="1" pageScale="1" pageWidth="827" pageHeight="1169" math="0" shadow="0">
      <root>
        <mxCell id="0" />
        <mxCell id="1" parent="0" />
        <mxCell id="fP4BsbKZjdjtJFtsRy6l-1" value="" style="rounded=0;whiteSpace=wrap;html=1;fillColor=#dae8fc;strokeColor=#6c8ebf;" vertex="1" parent="1">
          <mxGeometry x="50" y="130" width="700" height="520" as="geometry" />
        </mxCell>
        <mxCell id="fP4BsbKZjdjtJFtsRy6l-4" value="" style="whiteSpace=wrap;html=1;aspect=fixed;" vertex="1" parent="1">
          <mxGeometry x="414" y="170" width="290" height="290" as="geometry" />
        </mxCell>
        <mxCell id="fP4BsbKZjdjtJFtsRy6l-5" value="" style="whiteSpace=wrap;html=1;aspect=fixed;" vertex="1" parent="1">
          <mxGeometry x="70" y="170" width="290" height="290" as="geometry" />
        </mxCell>
        <mxCell id="fP4BsbKZjdjtJFtsRy6l-12" value="" style="rounded=1;whiteSpace=wrap;html=1;fillColor=#e1d5e7;strokeColor=#9673a6;" vertex="1" parent="1">
          <mxGeometry x="137.5" y="250" width="515" height="190" as="geometry" />
        </mxCell>
        <mxCell id="fP4BsbKZjdjtJFtsRy6l-2" value="Cluster minikube" style="text;html=1;resizable=0;autosize=1;align=center;verticalAlign=middle;points=[];fillColor=none;strokeColor=none;rounded=0;" vertex="1" parent="1">
          <mxGeometry x="340" y="130" width="110" height="30" as="geometry" />
        </mxCell>
        <mxCell id="fP4BsbKZjdjtJFtsRy6l-6" value="Node 2&lt;br&gt;rack 2&lt;br&gt;192.168.1.0/24" style="text;html=1;resizable=0;autosize=1;align=center;verticalAlign=middle;points=[];rounded=0;" vertex="1" parent="1">
          <mxGeometry x="520" y="170" width="100" height="60" as="geometry" />
        </mxCell>
        <mxCell id="fP4BsbKZjdjtJFtsRy6l-7" value="Node 1&lt;br&gt;rack 1&lt;br&gt;192.168.0.0/24" style="text;html=1;resizable=0;autosize=1;align=center;verticalAlign=middle;points=[];fillColor=none;strokeColor=none;rounded=0;" vertex="1" parent="1">
          <mxGeometry x="160" y="170" width="100" height="60" as="geometry" />
        </mxCell>
        <mxCell id="fP4BsbKZjdjtJFtsRy6l-8" value="" style="rounded=1;whiteSpace=wrap;html=1;" vertex="1" parent="1">
          <mxGeometry x="160" y="310" width="180" height="105" as="geometry" />
        </mxCell>
        <mxCell id="fP4BsbKZjdjtJFtsRy6l-9" value="" style="rounded=1;whiteSpace=wrap;html=1;" vertex="1" parent="1">
          <mxGeometry x="430" y="310" width="180" height="105" as="geometry" />
        </mxCell>
        <mxCell id="fP4BsbKZjdjtJFtsRy6l-10" value="Pod 1&lt;br&gt;192.168.0.65" style="text;html=1;resizable=0;autosize=1;align=center;verticalAlign=middle;points=[];fillColor=none;strokeColor=none;rounded=0;" vertex="1" parent="1">
          <mxGeometry x="205" y="340" width="90" height="40" as="geometry" />
        </mxCell>
        <mxCell id="fP4BsbKZjdjtJFtsRy6l-11" value="Pod 2&lt;br&gt;192.168.1.3" style="text;html=1;resizable=0;autosize=1;align=center;verticalAlign=middle;points=[];fillColor=none;strokeColor=none;rounded=0;" vertex="1" parent="1">
          <mxGeometry x="470" y="340" width="90" height="40" as="geometry" />
        </mxCell>
        <mxCell id="fP4BsbKZjdjtJFtsRy6l-13" value="Deployment" style="text;html=1;resizable=0;autosize=1;align=center;verticalAlign=middle;points=[];fillColor=none;strokeColor=none;rounded=0;" vertex="1" parent="1">
          <mxGeometry x="350" y="250" width="90" height="30" as="geometry" />
        </mxCell>
        <mxCell id="fP4BsbKZjdjtJFtsRy6l-19" style="edgeStyle=orthogonalEdgeStyle;rounded=0;orthogonalLoop=1;jettySize=auto;html=1;exitX=0.5;exitY=0;exitDx=0;exitDy=0;" edge="1" parent="1" source="fP4BsbKZjdjtJFtsRy6l-14" target="fP4BsbKZjdjtJFtsRy6l-8">
          <mxGeometry relative="1" as="geometry">
            <Array as="points">
              <mxPoint x="384" y="490" />
              <mxPoint x="250" y="490" />
            </Array>
          </mxGeometry>
        </mxCell>
        <mxCell id="fP4BsbKZjdjtJFtsRy6l-20" style="edgeStyle=orthogonalEdgeStyle;rounded=0;orthogonalLoop=1;jettySize=auto;html=1;exitX=0.5;exitY=0;exitDx=0;exitDy=0;entryX=0.5;entryY=1;entryDx=0;entryDy=0;" edge="1" parent="1" source="fP4BsbKZjdjtJFtsRy6l-14" target="fP4BsbKZjdjtJFtsRy6l-9">
          <mxGeometry relative="1" as="geometry">
            <Array as="points">
              <mxPoint x="384" y="490" />
              <mxPoint x="520" y="490" />
            </Array>
          </mxGeometry>
        </mxCell>
        <mxCell id="fP4BsbKZjdjtJFtsRy6l-14" value="" style="ellipse;whiteSpace=wrap;html=1;" vertex="1" parent="1">
          <mxGeometry x="284" y="532.5" width="200" height="70" as="geometry" />
        </mxCell>
        <mxCell id="fP4BsbKZjdjtJFtsRy6l-15" value="Service" style="text;html=1;resizable=0;autosize=1;align=center;verticalAlign=middle;points=[];fillColor=none;strokeColor=none;rounded=0;" vertex="1" parent="1">
          <mxGeometry x="354" y="552.5" width="60" height="30" as="geometry" />
        </mxCell>
        <mxCell id="fP4BsbKZjdjtJFtsRy6l-17" value="" style="shape=image;html=1;verticalAlign=top;verticalLabelPosition=bottom;labelBackgroundColor=#ffffff;imageAspect=0;aspect=fixed;image=https://cdn0.iconfinder.com/data/icons/social-media-2104/24/social_media_social_media_logo_docker-128.png" vertex="1" parent="1">
          <mxGeometry x="170" y="320" width="50" height="50" as="geometry" />
        </mxCell>
        <mxCell id="fP4BsbKZjdjtJFtsRy6l-18" value="" style="shape=image;html=1;verticalAlign=top;verticalLabelPosition=bottom;labelBackgroundColor=#ffffff;imageAspect=0;aspect=fixed;image=https://cdn0.iconfinder.com/data/icons/social-media-2104/24/social_media_social_media_logo_docker-128.png" vertex="1" parent="1">
          <mxGeometry x="550" y="320" width="50" height="50" as="geometry" />
        </mxCell>
        <mxCell id="fP4BsbKZjdjtJFtsRy6l-22" style="edgeStyle=orthogonalEdgeStyle;rounded=0;orthogonalLoop=1;jettySize=auto;html=1;exitX=0.5;exitY=0;exitDx=0;exitDy=0;exitPerimeter=0;entryX=0.5;entryY=1;entryDx=0;entryDy=0;" edge="1" parent="1" source="fP4BsbKZjdjtJFtsRy6l-21" target="fP4BsbKZjdjtJFtsRy6l-14">
          <mxGeometry relative="1" as="geometry" />
        </mxCell>
        <mxCell id="fP4BsbKZjdjtJFtsRy6l-21" value="" style="verticalLabelPosition=bottom;html=1;verticalAlign=top;align=center;strokeColor=none;fillColor=#00BEF2;shape=mxgraph.azure.computer;pointerEvents=1;" vertex="1" parent="1">
          <mxGeometry x="324" y="740" width="120" height="80" as="geometry" />
        </mxCell>
      </root>
    </mxGraphModel>
  </diagram>
</mxfile>
